<svg viewBox="0 0 760 520" xmlns="http://www.w3.org/2000/svg" font-family="Arial, Helvetica, sans-serif">
  <rect width="760" height="520" fill="white" />
  <text x="380" y="28" text-anchor="middle" font-size="16" font-weight="bold" fill="#0f172a">Figure 1 — Layered architecture</text>
  <defs><marker id="arrow" markerWidth="8" markerHeight="8" refX="6" refY="3" orient="auto"><path d="M0,0 L6,3 L0,6 Z" fill="#0ea5e9" /></marker></defs>
  <rect x="40" y="50" width="200" height="46" rx="10" fill="white" stroke="#0f172a" stroke-width="1.5" />
    <text x="140" y="71" text-anchor="middle" font-size="13" font-weight="bold" fill="#0f172a">React pages</text>
    <text x="140" y="88" text-anchor="middle" font-size="10.5" fill="#64748b">src/pages/*.tsx</text><rect x="40" y="130" width="200" height="46" rx="10" fill="white" stroke="#0f172a" stroke-width="1.5" />
    <text x="140" y="151" text-anchor="middle" font-size="13" font-weight="bold" fill="#0f172a">src/services/*.ts</text>
    <text x="140" y="168" text-anchor="middle" font-size="10.5" fill="#64748b">axios + JWT interceptor</text><rect x="40" y="230" width="200" height="46" rx="10" fill="white" stroke="#0f172a" stroke-width="1.5" />
    <text x="140" y="251" text-anchor="middle" font-size="13" font-weight="bold" fill="#0f172a">routes/*.routes.ts</text>
    <text x="140" y="268" text-anchor="middle" font-size="10.5" fill="#64748b">express-validator</text><rect x="40" y="310" width="200" height="46" rx="10" fill="white" stroke="#0f172a" stroke-width="1.5" />
    <text x="140" y="331" text-anchor="middle" font-size="13" font-weight="bold" fill="#0f172a">controllers/*.ts</text>
    <text x="140" y="348" text-anchor="middle" font-size="10.5" fill="#64748b">thin orchestration</text><rect x="40" y="390" width="200" height="46" rx="10" fill="white" stroke="#0f172a" stroke-width="1.5" />
    <text x="140" y="411" text-anchor="middle" font-size="13" font-weight="bold" fill="#0f172a">services/*.ts</text>
    <text x="140" y="428" text-anchor="middle" font-size="10.5" fill="#64748b">all domain logic</text><rect x="40" y="470" width="200" height="36" rx="10" fill="white" stroke="#0f172a" stroke-width="1.5" />
    <text x="140" y="486" text-anchor="middle" font-size="13" font-weight="bold" fill="#0f172a">models/*.ts + data/*.ts</text>
    <text x="140" y="503" text-anchor="middle" font-size="10.5" fill="#64748b">Mongoose + seeded datasets</text><rect x="440" y="230" width="260" height="46" rx="10" fill="white" stroke="#0f172a" stroke-width="1.5" />
    <text x="570" y="251" text-anchor="middle" font-size="13" font-weight="bold" fill="#0f172a">MongoDB (optional)</text>
    <text x="570" y="268" text-anchor="middle" font-size="10.5" fill="#64748b">graceful degradation, ADR-004</text><rect x="440" y="310" width="260" height="46" rx="10" fill="white" stroke="#0f172a" stroke-width="1.5" />
    <text x="570" y="331" text-anchor="middle" font-size="13" font-weight="bold" fill="#0f172a">OSRM / Nominatim / OWM</text>
    <text x="570" y="348" text-anchor="middle" font-size="10.5" fill="#64748b">external, all with fallbacks</text><line x1="140" y1="96" x2="140" y2="130" stroke="#0ea5e9" stroke-width="2" marker-end="url(#arrow)" /><line x1="140" y1="176" x2="140" y2="230" stroke="#0ea5e9" stroke-width="2" marker-end="url(#arrow)" /><line x1="140" y1="276" x2="140" y2="310" stroke="#0ea5e9" stroke-width="2" marker-end="url(#arrow)" /><line x1="140" y1="356" x2="140" y2="390" stroke="#0ea5e9" stroke-width="2" marker-end="url(#arrow)" /><line x1="140" y1="436" x2="140" y2="470" stroke="#0ea5e9" stroke-width="2" marker-end="url(#arrow)" /><line x1="240" y1="413" x2="440" y2="253" stroke="#64748b" stroke-width="1.5" stroke-dasharray="4 3" marker-end="url(#arrow)" /><line x1="240" y1="413" x2="440" y2="333" stroke="#64748b" stroke-width="1.5" stroke-dasharray="4 3" marker-end="url(#arrow)" /><text x="570" y="45" text-anchor="middle" font-size="11" fill="#64748b">{success, data, message} envelope throughout</text>
  </svg>